<svg width="440" height="279" viewBox="0 0 440 279" fill="none" xmlns="http://www.w3.org/2000/svg">
<path d="M163.494 73.87V205H127.038V132.646L102.3 205H71.796L46.872 132.088V205H10.416V73.87H54.498L87.42 159.058L119.598 73.87H163.494ZM408.718 137.668C416.406 139.404 422.482 143.248 426.946 149.2C431.534 155.028 433.828 161.724 433.828 169.288C433.828 180.448 429.984 189.19 422.296 195.514C414.608 201.838 403.82 205 389.932 205H325.018V73.87H387.886C401.278 73.87 411.756 76.846 419.32 82.798C427.008 88.75 430.852 97.12 430.852 107.908C430.852 115.596 428.806 122.044 424.714 127.252C420.746 132.336 415.414 135.808 408.718 137.668ZM361.474 125.95H379.888C389.064 125.95 393.652 122.168 393.652 114.604C393.652 106.792 389.064 102.886 379.888 102.886H361.474V125.95ZM382.678 175.612C391.854 175.612 396.442 171.768 396.442 164.08C396.442 160.112 395.202 157.074 392.722 154.966C390.366 152.858 386.956 151.804 382.492 151.804H361.474V175.612H382.678Z" fill="white"/>
<path d="M267.946 117.022C265.838 113.55 262.924 110.884 259.204 109.024C255.608 107.164 251.33 106.234 246.37 106.234C237.194 106.234 229.94 109.21 224.608 115.162C219.4 121.114 216.796 129.112 216.796 139.156C216.796 150.44 219.586 159.058 225.166 165.01C230.87 170.838 239.116 173.752 249.904 173.752C262.676 173.752 271.79 167.986 277.246 156.454H240.604V130.228H308.68V165.568C305.828 172.512 301.612 179.022 296.032 185.098C290.576 191.174 283.632 196.196 275.2 200.164C266.768 204.008 257.158 205.93 246.37 205.93C233.226 205.93 221.57 203.14 211.402 197.56C201.358 191.856 193.546 183.982 187.966 173.938C182.51 163.77 179.782 152.176 179.782 139.156C179.782 126.26 182.51 114.79 187.966 104.746C193.546 94.578 201.358 86.704 211.402 81.124C221.446 75.42 233.04 72.568 246.184 72.568C262.676 72.568 276.316 76.536 287.104 84.472C297.892 92.408 304.588 103.258 307.192 117.022H267.946Z" fill="#FF003C"/>
</svg>
