<svg width="85" height="28" viewBox="0 0 85 28" fill="none" xmlns="http://www.w3.org/2000/svg">
<path d="M30.523 0.914998V27H23.271V12.607L18.35 27H12.282L7.324 12.496V27H0.0720001V0.914998H8.841L15.39 17.861L21.791 0.914998H30.523ZM79.304 13.606C80.8334 13.9513 82.042 14.716 82.93 15.9C83.8427 17.0593 84.299 18.3913 84.299 19.896C84.299 22.116 83.5344 23.855 82.005 25.113C80.4757 26.371 78.3297 27 75.567 27H62.654V0.914998H75.16C77.824 0.914998 79.9084 1.507 81.413 2.691C82.9424 3.875 83.707 5.54 83.707 7.686C83.707 9.21533 83.3 10.498 82.486 11.534C81.6967 12.5453 80.636 13.236 79.304 13.606ZM69.906 11.275H73.569C75.3944 11.275 76.307 10.5227 76.307 9.018C76.307 7.464 75.3944 6.687 73.569 6.687H69.906V11.275ZM74.124 21.154C75.9494 21.154 76.862 20.3893 76.862 18.86C76.862 18.0707 76.6154 17.4663 76.122 17.047C75.6534 16.6277 74.975 16.418 74.087 16.418H69.906V21.154H74.124Z" fill="white"/>
<path d="M51.3011 9.499C50.8818 8.80833 50.3021 8.278 49.5621 7.908C48.8468 7.538 47.9958 7.353 47.0091 7.353C45.1838 7.353 43.7408 7.945 42.6801 9.129C41.6441 10.313 41.1261 11.904 41.1261 13.902C41.1261 16.1467 41.6811 17.861 42.7911 19.045C43.9258 20.2043 45.5661 20.784 47.7121 20.784C50.2528 20.784 52.0658 19.637 53.1511 17.343H45.8621V12.126H59.4041V19.156C58.8368 20.5373 57.9981 21.8323 56.8881 23.041C55.8028 24.2497 54.4214 25.2487 52.7441 26.038C51.0668 26.8027 49.1551 27.185 47.0091 27.185C44.3944 27.185 42.0758 26.63 40.0531 25.52C38.0551 24.3853 36.5011 22.819 35.3911 20.821C34.3058 18.7983 33.7631 16.492 33.7631 13.902C33.7631 11.3367 34.3058 9.055 35.3911 7.057C36.5011 5.03433 38.0551 3.468 40.0531 2.358C42.0511 1.22333 44.3574 0.656 46.9721 0.656C50.2528 0.656 52.9661 1.44533 55.1121 3.024C57.2581 4.60267 58.5901 6.761 59.1081 9.499H51.3011Z" fill="#FF003C"/>
</svg>
