<svg width="26" height="27" viewBox="0 0 26 27" fill="none" xmlns="http://www.w3.org/2000/svg">
<g clip-path="url(#clip0_1507_2057)">
<circle cx="13" cy="13" r="11" fill="#003778"/>
<path d="M12.2857 14.2143H8.71429C8.51191 14.2143 8.34238 14.1457 8.20572 14.0086C8.06905 13.8714 8.00048 13.7019 8 13.5C7.99953 13.2981 8.0681 13.1286 8.20572 12.9914C8.34334 12.8543 8.51286 12.7857 8.71429 12.7857H12.2857V9.21429C12.2857 9.01191 12.3543 8.84238 12.4914 8.70572C12.6286 8.56905 12.7981 8.50048 13 8.5C13.2019 8.49953 13.3717 8.5681 13.5093 8.70572C13.6469 8.84334 13.7152 9.01286 13.7143 9.21429V12.7857H17.2857C17.4881 12.7857 17.6579 12.8543 17.795 12.9914C17.9321 13.1286 18.0005 13.2981 18 13.5C17.9995 13.7019 17.931 13.8717 17.7943 14.0093C17.6576 14.1469 17.4881 14.2152 17.2857 14.2143H13.7143V17.7857C13.7143 17.9881 13.6457 18.1579 13.5086 18.295C13.3714 18.4321 13.2019 18.5005 13 18.5C12.7981 18.4995 12.6286 18.431 12.4914 18.2943C12.3543 18.1576 12.2857 17.9881 12.2857 17.7857V14.2143Z" fill="#031932"/>
</g>
<defs>
<clipPath id="clip0_1507_2057">
<rect width="26" height="26" fill="white" transform="translate(0 0.5)"/>
</clipPath>
</defs>
</svg>
