<svg width="16" height="17" viewBox="0 0 16 17" fill="none" xmlns="http://www.w3.org/2000/svg">
<path d="M13 3H3C2.17157 3 1.5 3.67157 1.5 4.5V13.5C1.5 14.3284 2.17157 15 3 15H13C13.8284 15 14.5 14.3284 14.5 13.5V4.5C14.5 3.67157 13.8284 3 13 3Z" stroke="#6C6C6C" stroke-linejoin="round"/>
<path d="M9.25 8.5C9.66421 8.5 10 8.16421 10 7.75C10 7.33579 9.66421 7 9.25 7C8.83579 7 8.5 7.33579 8.5 7.75C8.5 8.16421 8.83579 8.5 9.25 8.5Z" fill="#6C6C6C"/>
<path d="M11.75 8.5C12.1642 8.5 12.5 8.16421 12.5 7.75C12.5 7.33579 12.1642 7 11.75 7C11.3358 7 11 7.33579 11 7.75C11 8.16421 11.3358 8.5 11.75 8.5Z" fill="#6C6C6C"/>
<path d="M9.25 11C9.66421 11 10 10.6642 10 10.25C10 9.83579 9.66421 9.5 9.25 9.5C8.83579 9.5 8.5 9.83579 8.5 10.25C8.5 10.6642 8.83579 11 9.25 11Z" fill="#6C6C6C"/>
<path d="M11.75 11C12.1642 11 12.5 10.6642 12.5 10.25C12.5 9.83579 12.1642 9.5 11.75 9.5C11.3358 9.5 11 9.83579 11 10.25C11 10.6642 11.3358 11 11.75 11Z" fill="#6C6C6C"/>
<path d="M4.25 11C4.66421 11 5 10.6642 5 10.25C5 9.83579 4.66421 9.5 4.25 9.5C3.83579 9.5 3.5 9.83579 3.5 10.25C3.5 10.6642 3.83579 11 4.25 11Z" fill="#6C6C6C"/>
<path d="M6.75 11C7.16421 11 7.5 10.6642 7.5 10.25C7.5 9.83579 7.16421 9.5 6.75 9.5C6.33579 9.5 6 9.83579 6 10.25C6 10.6642 6.33579 11 6.75 11Z" fill="#6C6C6C"/>
<path d="M4.25 13.5C4.66421 13.5 5 13.1642 5 12.75C5 12.3358 4.66421 12 4.25 12C3.83579 12 3.5 12.3358 3.5 12.75C3.5 13.1642 3.83579 13.5 4.25 13.5Z" fill="#6C6C6C"/>
<path d="M6.75 13.5C7.16421 13.5 7.5 13.1642 7.5 12.75C7.5 12.3358 7.16421 12 6.75 12C6.33579 12 6 12.3358 6 12.75C6 13.1642 6.33579 13.5 6.75 13.5Z" fill="#6C6C6C"/>
<path d="M9.25 13.5C9.66421 13.5 10 13.1642 10 12.75C10 12.3358 9.66421 12 9.25 12C8.83579 12 8.5 12.3358 8.5 12.75C8.5 13.1642 8.83579 13.5 9.25 13.5Z" fill="#6C6C6C"/>
<path d="M4 2V3M12 2V3" stroke="#6C6C6C" stroke-linecap="round" stroke-linejoin="round"/>
<path d="M14.5 5.5H1.5" stroke="#6C6C6C" stroke-linejoin="round"/>
</svg>
