<svg width="48" height="48" viewBox="0 0 48 48" fill="none" xmlns="http://www.w3.org/2000/svg">
<circle cx="24" cy="24" r="24" fill="black" fill-opacity="0.7"/>
<path d="M13.4993 34.5C12.8577 34.5 12.3086 34.2717 11.852 33.8152C11.3955 33.3586 11.1668 32.8091 11.166 32.1667V18.1667C11.166 17.525 11.3947 16.9759 11.852 16.5194C12.3093 16.0628 12.8585 15.8341 13.4993 15.8334H17.1743L19.3327 13.5H26.3327V15.8334H20.3535L18.2243 18.1667H13.4993V32.1667H32.166V21.6667H34.4994V32.1667C34.4994 32.8084 34.2711 33.3579 33.8145 33.8152C33.358 34.2725 32.8085 34.5008 32.166 34.5H13.4993ZM32.166 18.1667V15.8334H29.8327V13.5H32.166V11.1667H34.4994V13.5H36.8327V15.8334H34.4994V18.1667H32.166ZM22.8327 30.4167C24.291 30.4167 25.5308 29.9065 26.552 28.886C27.5732 27.8656 28.0835 26.6258 28.0827 25.1667C28.0819 23.7076 27.5717 22.4682 26.552 21.4485C25.5323 20.4289 24.2926 19.9182 22.8327 19.9167C21.3728 19.9151 20.1334 20.4257 19.1145 21.4485C18.0956 22.4713 17.585 23.7107 17.5827 25.1667C17.5803 26.6227 18.091 27.8625 19.1145 28.886C20.1381 29.9096 21.3775 30.4198 22.8327 30.4167ZM22.8327 28.0834C22.016 28.0834 21.3257 27.8014 20.7619 27.2375C20.198 26.6736 19.916 25.9834 19.916 25.1667C19.916 24.35 20.198 23.6597 20.7619 23.0959C21.3257 22.532 22.016 22.25 22.8327 22.25C23.6494 22.25 24.3396 22.532 24.9035 23.0959C25.4674 23.6597 25.7493 24.35 25.7493 25.1667C25.7493 25.9834 25.4674 26.6736 24.9035 27.2375C24.3396 27.8014 23.6494 28.0834 22.8327 28.0834Z" fill="white"/>
</svg>
