<svg width="134" height="134" viewBox="0 0 134 134" fill="none" xmlns="http://www.w3.org/2000/svg">
<circle cx="67" cy="67" r="65" fill="white" stroke="#020E1C" stroke-width="4"/>
<mask id="mask0_1046_898" style="mask-type:alpha" maskUnits="userSpaceOnUse" x="23" y="23" width="89" height="89">
<rect x="23" y="23" width="88.5357" height="88.5357" fill="#D9D9D9"/>
</mask>
<g mask="url(#mask0_1046_898)">
<path d="M67.2673 67.267C63.2094 67.267 59.7356 65.8222 56.8459 62.9325C53.9562 60.0428 52.5113 56.569 52.5113 52.5111C52.5113 48.4532 53.9562 44.9794 56.8459 42.0897C59.7356 39.2 63.2094 37.7551 67.2673 37.7551C71.3252 37.7551 74.799 39.2 77.6887 42.0897C80.5784 44.9794 82.0232 48.4532 82.0232 52.5111C82.0232 56.569 80.5784 60.0428 77.6887 62.9325C74.799 65.8222 71.3252 67.267 67.2673 67.267ZM37.7554 96.7789V86.4498C37.7554 84.3593 38.2933 82.438 39.3693 80.6857C40.4453 78.9335 41.8747 77.5962 43.6578 76.674C47.4697 74.768 51.3431 73.3385 55.2781 72.3855C59.213 71.4325 63.2094 70.956 67.2673 70.956C71.3252 70.956 75.3216 71.4325 79.2565 72.3855C83.1914 73.3385 87.0649 74.768 90.8768 76.674C92.6598 77.5962 94.0893 78.9335 95.1653 80.6857C96.2412 82.438 96.7792 84.3593 96.7792 86.4498V96.7789H37.7554ZM45.1333 89.401H89.4012V86.4498C89.4012 85.7735 89.2321 85.1586 88.894 84.6053C88.5558 84.0519 88.1101 83.6216 87.5567 83.3141C84.2366 81.6541 80.8858 80.4091 77.5042 79.579C74.1227 78.749 70.7103 78.334 67.2673 78.334C63.8242 78.334 60.4119 78.749 57.0303 79.579C53.6488 80.4091 50.2979 81.6541 46.9778 83.3141C46.4245 83.6216 45.9787 84.0519 45.6406 84.6053C45.3024 85.1586 45.1333 85.7735 45.1333 86.4498V89.401ZM67.2673 59.8891C69.2962 59.8891 71.0331 59.1666 72.478 57.7218C73.9228 56.2769 74.6453 54.54 74.6453 52.5111C74.6453 50.4821 73.9228 48.7452 72.478 47.3004C71.0331 45.8555 69.2962 45.1331 67.2673 45.1331C65.2383 45.1331 63.5014 45.8555 62.0566 47.3004C60.6117 48.7452 59.8893 50.4821 59.8893 52.5111C59.8893 54.54 60.6117 56.2769 62.0566 57.7218C63.5014 59.1666 65.2383 59.8891 67.2673 59.8891Z" fill="#020E1C"/>
</g>
</svg>
