<svg width="33" height="33" viewBox="0 0 33 33" fill="none" xmlns="http://www.w3.org/2000/svg">
<g clip-path="url(#clip0_1681_1357)">
<path d="M25.2701 -0.0065918H7.73167C3.45835 -0.0065918 -0.00585938 3.45762 -0.00585938 7.73094V25.2693C-0.00585938 29.5427 3.45835 33.0069 7.73167 33.0069H25.2701C29.5434 33.0069 33.0076 29.5427 33.0076 25.2693V7.73094C33.0076 3.45762 29.5434 -0.0065918 25.2701 -0.0065918Z" fill="#888888"/>
<mask id="mask0_1681_1357" style="mask-type:luminance" maskUnits="userSpaceOnUse" x="3" y="6" width="27" height="21">
<path d="M3.60547 6.57031H29.3972V26.5499H3.60547V6.57031Z" fill="white"/>
</mask>
<g mask="url(#mask0_1681_1357)">
<path d="M25.4391 8.34951C23.767 7.58204 22.0023 7.03469 20.1894 6.72115C20.1729 6.71814 20.1559 6.72038 20.1408 6.72755C20.1256 6.73473 20.1131 6.74647 20.105 6.76113C19.8783 7.16425 19.6271 7.6904 19.4513 8.10385C17.4688 7.80698 15.4967 7.80698 13.5549 8.10385C13.379 7.68112 13.1188 7.16425 12.8911 6.76113C12.8827 6.74671 12.8701 6.73517 12.855 6.72803C12.84 6.72089 12.8231 6.7185 12.8066 6.72115C10.9935 7.03398 9.22872 7.58136 7.55682 8.34951C7.54258 8.35571 7.53054 8.36604 7.52226 8.37917C4.17861 13.3745 3.26275 18.2471 3.71204 23.0593C3.71478 23.0831 3.72684 23.1048 3.74557 23.1197C5.95154 24.7398 8.08851 25.7234 10.1858 26.3752C10.2021 26.3801 10.2195 26.3798 10.2357 26.3745C10.2518 26.3692 10.266 26.3591 10.2763 26.3456C10.7724 25.668 11.2146 24.9537 11.5939 24.2025C11.5991 24.1923 11.6021 24.181 11.6026 24.1695C11.6032 24.1579 11.6013 24.1464 11.597 24.1357C11.5928 24.1249 11.5863 24.1152 11.5781 24.1072C11.5698 24.0991 11.56 24.0929 11.5491 24.0889C10.8476 23.8228 10.1797 23.4984 9.53724 23.13C9.52554 23.1231 9.51571 23.1134 9.50862 23.1019C9.50154 23.0903 9.49741 23.0771 9.49661 23.0636C9.49581 23.05 9.49835 23.0365 9.50402 23.0241C9.50969 23.0118 9.51831 23.001 9.52911 22.9928C9.66465 22.8915 9.79786 22.7871 9.92863 22.6797C9.94009 22.6702 9.95395 22.6642 9.96867 22.6622C9.98338 22.6602 9.99836 22.6623 10.0119 22.6683C14.233 24.5955 18.8027 24.5955 22.9738 22.6683C22.9875 22.6619 23.0026 22.6595 23.0176 22.6613C23.0325 22.6631 23.0466 22.6691 23.0583 22.6786C23.1892 22.7866 23.3228 22.8914 23.4589 22.9928C23.4697 23.0009 23.4784 23.0116 23.4841 23.0239C23.4899 23.0362 23.4925 23.0497 23.4918 23.0633C23.4911 23.0768 23.4871 23.09 23.4801 23.1016C23.4731 23.1133 23.4634 23.123 23.4518 23.13C22.8089 23.5054 22.1356 23.8258 21.4388 24.0879C21.428 24.0921 21.4183 24.0985 21.4101 24.1067C21.4019 24.1149 21.3956 24.1247 21.3915 24.1355C21.3873 24.1463 21.3855 24.1579 21.3862 24.1694C21.3868 24.181 21.3898 24.1923 21.3951 24.2025C21.7809 24.9478 22.2209 25.6637 22.7115 26.3446C22.7216 26.3584 22.7357 26.3688 22.7519 26.3743C22.7681 26.3798 22.7857 26.3802 22.8021 26.3752C24.9095 25.7234 27.0465 24.7398 29.2526 23.1197C29.262 23.1127 29.2699 23.1038 29.2757 23.0936C29.2814 23.0834 29.285 23.072 29.2861 23.0604C29.8239 17.4969 28.3853 12.6642 25.4727 8.3802C25.4656 8.36624 25.4537 8.35533 25.4391 8.34951ZM12.2242 20.1293C10.9533 20.1293 9.90619 18.9626 9.90619 17.5297C9.90619 16.0968 10.9331 14.9302 12.2242 14.9302C13.5254 14.9302 14.5624 16.1072 14.542 17.5297C14.542 18.9626 13.5152 20.1293 12.2242 20.1293ZM20.7943 20.1293C19.5234 20.1293 18.4764 18.9626 18.4764 17.5297C18.4764 16.0968 19.5032 14.9302 20.7943 14.9302C22.0955 14.9302 23.1325 16.1072 23.1122 17.5297C23.1122 18.9626 22.0955 20.1293 20.7943 20.1293Z" fill="white"/>
</g>
</g>
<defs>
<clipPath id="clip0_1681_1357">
<rect width="33" height="33" fill="white"/>
</clipPath>
</defs>
</svg>
