<svg width="20" height="20" viewBox="0 0 20 20" fill="none" xmlns="http://www.w3.org/2000/svg">
<path d="M5.17041 2.58612C5.17041 2.58612 3.37353 3.32831 2.95166 3.633C2.4376 4.00487 1.8126 4.47831 1.48135 5.11112C1.16416 5.71581 1.0376 6.17831 1.01416 6.95331C0.990723 7.72831 1.81885 14.1642 1.81885 14.1642C1.81885 14.1642 6.30635 18.3924 7.01416 18.7127C7.72197 19.033 8.76572 19.4252 10.0188 19.4017C11.272 19.3783 12.0954 18.9924 12.5751 18.7642C13.0532 18.5361 18.7313 10.1299 18.7782 9.4455C18.8251 8.76112 18.8704 7.45643 18.8423 6.90487C18.8126 6.33925 18.697 5.88768 18.4001 5.31737C18.1032 4.74706 17.6157 4.19081 17.3204 3.93925C17.0235 3.68925 13.297 2.01581 12.1688 1.76268C8.90947 1.03612 5.17041 2.58612 5.17041 2.58612Z" fill="#CECECE"/>
<path d="M2.41234 4.54695C2.43421 5.31101 3.04984 5.66414 4.30452 6.30164C5.55921 6.93914 8.74984 8.80945 10.0717 8.85476C11.3936 8.90007 16.2936 5.92195 17.0014 5.46414C17.7014 5.01101 17.8186 4.28757 17.1608 3.79382C16.2483 3.11101 12.1686 1.21882 11.303 0.900073C10.8608 0.737573 9.73421 0.484448 8.84046 0.831323C8.13421 1.10476 3.65452 3.1782 3.22171 3.45164C2.7889 3.72507 2.4014 4.12039 2.41234 4.54695Z" fill="#EAEAEA"/>
<path d="M5.36582 2.98761C5.0877 2.67355 3.12988 3.69855 3.12988 4.57198C3.12988 5.41886 4.90645 6.49698 5.35176 6.09698C5.67207 5.80948 4.5377 4.91261 4.68613 4.39386C4.83301 3.87511 5.60332 3.25323 5.36582 2.98761ZM7.30332 7.51261C6.99551 7.95792 8.9627 8.91573 10.1627 8.91573C11.2924 8.91573 13.1377 7.81261 12.9002 7.4923C12.5158 6.97355 11.583 7.46105 10.1314 7.4923C9.33145 7.50948 7.62363 7.04855 7.30332 7.51261ZM14.4393 6.10011C14.8236 6.35167 17.0158 5.24073 17.0596 4.57511C17.1033 3.90948 15.6971 3.10948 15.2971 3.39073C14.8971 3.67198 15.4158 3.8798 15.283 4.3673C15.1502 4.8548 13.9783 5.79855 14.4393 6.10011Z" fill="white"/>
<path d="M1.01218 7.04513C0.988747 7.85294 1.03718 12.7842 1.04812 13.4529C1.05906 14.1904 1.24031 15.0108 1.73093 15.4311C2.22156 15.8514 6.195 18.3717 7.08875 18.7576C8.34031 19.2983 9.5575 18.7045 9.645 17.3576C9.7325 16.0092 9.67937 11.8951 9.67937 11.3358C9.67937 10.7764 9.39812 9.95138 8.78562 9.53107C8.17312 9.11076 3.32937 6.33263 2.8325 6.04669C2.1325 5.64513 1.04812 5.83732 1.01218 7.04513Z" fill="#DFDFDF"/>
<path d="M11.0441 9.5844C10.5191 10 10.3081 10.6 10.3081 11.2469C10.3081 11.8938 10.2738 16.8844 10.2909 17.3922C10.3081 17.9 11.0269 19.2485 12.1472 18.9156C13.305 18.5719 14.7738 17.5328 15.8238 16.9016C16.8738 16.2719 17.6925 15.7375 18.0581 15.4375C18.5269 15.0547 18.8441 14.1281 18.8613 13.3406C18.8784 12.5703 18.8566 7.74846 18.8425 7.37034C18.8081 6.48284 18.4488 5.75002 17.4863 5.9594C16.5238 6.16877 11.7972 8.98909 11.0441 9.5844Z" fill="#B8B8B8"/>
<path d="M10.0455 6.1251C11.2372 6.1251 12.2033 5.43044 12.2033 4.57354C12.2033 3.71663 11.2372 3.02197 10.0455 3.02197C8.85378 3.02197 7.8877 3.71663 7.8877 4.57354C7.8877 5.43044 8.85378 6.1251 10.0455 6.1251Z" fill="#FE4E27"/>
<path d="M4.13881 8.67991C4.42006 9.46428 4.33569 10.2768 3.73412 10.4924C3.13256 10.708 2.41225 10.1721 2.13569 9.40491C1.85287 8.62053 1.92319 7.80647 2.54037 7.59241C3.14506 7.38459 3.85756 7.89553 4.13881 8.67991ZM8.09662 15.5627C8.431 16.3252 8.41225 17.2283 7.82787 17.4846C7.2435 17.7408 6.45131 17.208 6.12162 16.4612C5.78569 15.6987 5.83569 14.8627 6.42006 14.6065C7.006 14.3502 7.76225 14.8002 8.09662 15.5627ZM15.931 10.4627C16.4419 10.7533 17.2638 10.3924 17.6873 9.65178C18.1107 8.90959 18.0388 8.07366 17.5294 7.78147C17.0185 7.49084 16.2107 7.85022 15.7873 8.59241C15.3638 9.33303 15.4201 10.1721 15.931 10.4627ZM13.9123 13.8596C14.431 14.1627 15.2748 13.8018 15.7154 13.0471C16.156 12.294 16.0935 11.4362 15.5748 11.133C15.056 10.8299 14.1951 11.1658 13.7544 11.919C13.3138 12.6752 13.3951 13.5565 13.9123 13.8596ZM11.9076 17.3315C12.4091 17.6377 13.2419 17.3002 13.6873 16.5721C14.1326 15.844 14.0857 15.0049 13.5841 14.6987C13.0826 14.3924 12.306 14.608 11.7935 15.419C11.3373 16.1393 11.406 17.0252 11.9076 17.3315Z" fill="#2F2F2F"/>
</svg>
