<svg width="16" height="16" viewBox="0 0 16 16" fill="none" xmlns="http://www.w3.org/2000/svg">
<path d="M2.45508 4.41614C2.46633 4.38364 2.44383 3.81364 2.76133 3.36489C3.07883 2.91614 3.49508 2.84989 3.80258 2.79489C4.17508 2.72864 5.07383 2.61989 5.21633 2.92614C5.35883 3.23239 5.24883 3.39739 5.47883 3.48489C5.70883 3.57239 5.29258 4.08739 5.29258 4.08739L2.45508 4.41614ZM13.4863 4.40489C13.4863 4.40489 13.5763 3.85114 13.2601 3.47739C12.7851 2.91364 12.0413 2.73114 11.3376 2.73114C11.1113 2.73114 10.8401 2.77489 10.7526 3.04489C10.7026 3.20114 10.6676 3.39114 10.5576 3.41239C10.4488 3.43489 12.7738 4.15364 13.4863 4.40489Z" fill="#464C4F"/>
<path d="M4.8799 10.1612C4.50615 10.4512 4.0099 12.4512 3.23365 12.9799C2.4574 13.5087 0.698654 13.2262 0.566154 12.1474C0.449904 11.1962 0.661154 9.19615 1.19115 7.1524C1.72115 5.10865 2.12865 4.09615 3.3674 3.7649C4.36115 3.49865 6.30865 3.31115 8.1999 3.3299C10.0924 3.34865 11.7487 3.34865 12.7899 3.74615C13.7237 4.1024 14.3599 5.07115 14.7962 6.9624C15.2312 8.8549 15.5674 11.1299 15.5149 11.8824C15.4387 12.9799 13.8874 13.6799 12.7337 12.8287C11.8149 12.1512 11.6362 10.4262 11.1637 10.1799C10.6912 9.93365 5.2199 9.89615 4.8799 10.1612Z" fill="#5E6268"/>
<path d="M11.6564 9.64622C11.5664 9.75872 11.7739 9.92622 11.9214 10.2925C12.0689 10.6587 12.4489 11.8712 12.8177 12.21C13.2777 12.6312 13.6364 12.5525 13.7064 12.42C13.7764 12.2875 13.3789 11.945 12.9114 11.1812C12.4439 10.4175 11.8439 9.41247 11.6564 9.64622ZM1.31518 9.33497C1.17643 9.35997 0.80893 11.205 1.08143 11.985C1.30893 12.635 2.18018 12.6712 2.50768 12.5775C3.16018 12.3912 3.36518 11.7587 3.21643 11.6887C3.06893 11.6187 2.55143 12.1137 2.06268 11.8837C1.51768 11.6262 1.52518 10.9012 1.45518 10.1687C1.39268 9.50872 1.44768 9.31122 1.31518 9.33497ZM4.75143 5.24372C4.70018 5.24372 4.25018 5.24122 4.25018 5.24122L4.25268 4.69747C4.25268 4.69747 4.26268 4.25872 3.79268 4.26872C3.37143 4.27747 3.38018 4.62872 3.38018 4.69747C3.38018 4.76622 3.37768 5.23747 3.37768 5.23747C3.37768 5.23747 2.90018 5.23247 2.81143 5.23497C2.72268 5.23747 2.39018 5.24247 2.39018 5.67122C2.39018 6.07622 2.73393 6.10497 2.81143 6.10747C2.88893 6.10997 3.37518 6.10997 3.37518 6.10997C3.37518 6.10997 3.37143 6.56372 3.37268 6.63747C3.37393 6.71122 3.38768 7.05872 3.80893 7.05872C4.26893 7.05872 4.24518 6.63747 4.24518 6.63747L4.24768 6.11372C4.24768 6.11372 4.67768 6.11747 4.75268 6.11622C4.86018 6.11372 5.17643 6.08497 5.18143 5.65622C5.18518 5.23247 4.80393 5.24372 4.75143 5.24372Z" fill="#9E9E9E"/>
<path d="M6.04992 8.86986C6.63949 8.86986 7.11742 8.39193 7.11742 7.80236C7.11742 7.2128 6.63949 6.73486 6.04992 6.73486C5.46036 6.73486 4.98242 7.2128 4.98242 7.80236C4.98242 8.39193 5.46036 8.86986 6.04992 8.86986Z" fill="#AFAFAF"/>
<path d="M9.71887 8.88646C10.3084 8.88646 10.7864 8.40853 10.7864 7.81896C10.7864 7.2294 10.3084 6.75146 9.71887 6.75146C9.1293 6.75146 8.65137 7.2294 8.65137 7.81896C8.65137 8.40853 9.1293 8.88646 9.71887 8.88646Z" fill="#AFAFAF"/>
<path d="M6.04871 8.49C6.4429 8.49 6.76246 8.17044 6.76246 7.77625C6.76246 7.38206 6.4429 7.0625 6.04871 7.0625C5.65452 7.0625 5.33496 7.38206 5.33496 7.77625C5.33496 8.17044 5.65452 8.49 6.04871 8.49Z" fill="#C8C8C8"/>
<path d="M9.71863 8.51393C10.1128 8.51393 10.4324 8.19437 10.4324 7.80018C10.4324 7.40598 10.1128 7.08643 9.71863 7.08643C9.32444 7.08643 9.00488 7.40598 9.00488 7.80018C9.00488 8.19437 9.32444 8.51393 9.71863 8.51393Z" fill="#C8C8C8"/>
<path d="M10.7273 6.28379C11.0449 6.28379 11.3023 6.02635 11.3023 5.70879C11.3023 5.39123 11.0449 5.13379 10.7273 5.13379C10.4098 5.13379 10.1523 5.39123 10.1523 5.70879C10.1523 6.02635 10.4098 6.28379 10.7273 6.28379Z" fill="#2086FA"/>
<path d="M11.868 7.38486C12.1855 7.38486 12.443 7.12743 12.443 6.80986C12.443 6.4923 12.1855 6.23486 11.868 6.23486C11.5504 6.23486 11.293 6.4923 11.293 6.80986C11.293 7.12743 11.5504 7.38486 11.868 7.38486Z" fill="#06AC48"/>
<path d="M13.0154 6.3751C13.333 6.3751 13.5904 6.11766 13.5904 5.8001C13.5904 5.48253 13.333 5.2251 13.0154 5.2251C12.6979 5.2251 12.4404 5.48253 12.4404 5.8001C12.4404 6.11766 12.6979 6.3751 13.0154 6.3751Z" fill="#F72E26"/>
<path d="M11.8777 5.20127C12.1953 5.20127 12.4527 4.94383 12.4527 4.62627C12.4527 4.30871 12.1953 4.05127 11.8777 4.05127C11.5602 4.05127 11.3027 4.30871 11.3027 4.62627C11.3027 4.94383 11.5602 5.20127 11.8777 5.20127Z" fill="#FDB700"/>
</svg>
