<svg width="24" height="24" viewBox="0 0 24 24" fill="none" xmlns="http://www.w3.org/2000/svg">
<path d="M21.9861 9.74005L21.9781 9.65205C21.8894 8.39123 21.3268 7.2107 20.4033 6.34771C19.4799 5.48473 18.264 5.00325 17.0001 5.00005H7.00007C5.7184 4.99426 4.48404 5.48383 3.55477 6.36652C2.62549 7.24921 2.07314 8.45678 2.01307 9.73705C2.00373 9.81505 1.9994 9.89938 2.00007 9.99005V16.5001C2.00007 17.4251 2.37307 18.3281 3.02207 18.9761C3.68063 19.6309 4.57132 19.999 5.50007 20.0001C7.30007 20.0001 8.00407 19.0001 9.00007 17.0001C9.14607 16.7081 9.99207 15.0001 12.0001 15.0001C13.9961 15.0001 14.8531 16.7071 15.0001 17.0001C16.0041 19.0001 16.7001 20.0001 18.5001 20.0001C19.4251 20.0001 20.3281 19.6271 20.9761 18.9781C21.6309 18.3195 21.999 17.4288 22.0001 16.5001V10.0001C22.0001 9.90605 21.9954 9.81938 21.9861 9.74005ZM7.00007 12.0311C6.73373 12.0371 6.46887 11.9898 6.22104 11.8921C5.97321 11.7943 5.74741 11.6481 5.55689 11.4618C5.36637 11.2756 5.21498 11.0532 5.11159 10.8077C5.00821 10.5622 4.95492 10.2985 4.95485 10.0321C4.95478 9.76566 5.00794 9.50192 5.11121 9.25634C5.21447 9.01076 5.36575 8.78828 5.55618 8.60198C5.7466 8.41567 5.97233 8.26928 6.22011 8.17141C6.46789 8.07354 6.73273 8.02616 6.99907 8.03205C7.52163 8.04361 8.0189 8.25928 8.38444 8.63289C8.74997 9.0065 8.95472 9.50837 8.95485 10.0311C8.95498 10.5538 8.75048 11.0557 8.38514 11.4295C8.01979 11.8033 7.52262 12.0192 7.00007 12.0311ZM17.0001 7.03105C17.2653 7.03105 17.5196 7.13641 17.7072 7.32394C17.8947 7.51148 18.0001 7.76583 18.0001 8.03105C18.0001 8.29627 17.8947 8.55062 17.7072 8.73816C17.5196 8.92569 17.2653 9.03105 17.0001 9.03105C16.7348 9.03105 16.4805 8.92569 16.293 8.73816C16.1054 8.55062 16.0001 8.29627 16.0001 8.03105C16.0001 7.76583 16.1054 7.51148 16.293 7.32394C16.4805 7.13641 16.7348 7.03105 17.0001 7.03105ZM15.0001 11.0311C14.7348 11.0311 14.4805 10.9257 14.293 10.7382C14.1054 10.5506 14.0001 10.2963 14.0001 10.0311C14.0001 9.76583 14.1054 9.51148 14.293 9.32394C14.4805 9.13641 14.7348 9.03105 15.0001 9.03105C15.2653 9.03105 15.5196 9.13641 15.7072 9.32394C15.8947 9.51148 16.0001 9.76583 16.0001 10.0311C16.0001 10.2963 15.8947 10.5506 15.7072 10.7382C15.5196 10.9257 15.2653 11.0311 15.0001 11.0311ZM17.0001 13.0311C16.7348 13.0311 16.4805 12.9257 16.293 12.7382C16.1054 12.5506 16.0001 12.2963 16.0001 12.0311C16.0001 11.7658 16.1054 11.5115 16.293 11.3239C16.4805 11.1364 16.7348 11.0311 17.0001 11.0311C17.2653 11.0311 17.5196 11.1364 17.7072 11.3239C17.8947 11.5115 18.0001 11.7658 18.0001 12.0311C18.0001 12.2963 17.8947 12.5506 17.7072 12.7382C17.5196 12.9257 17.2653 13.0311 17.0001 13.0311ZM19.0001 11.0311C18.7348 11.0311 18.4805 10.9257 18.293 10.7382C18.1054 10.5506 18.0001 10.2963 18.0001 10.0311C18.0001 9.76583 18.1054 9.51148 18.293 9.32394C18.4805 9.13641 18.7348 9.03105 19.0001 9.03105C19.2653 9.03105 19.5196 9.13641 19.7072 9.32394C19.8947 9.51148 20.0001 9.76583 20.0001 10.0311C20.0001 10.2963 19.8947 10.5506 19.7072 10.7382C19.5196 10.9257 19.2653 11.0311 19.0001 11.0311Z" fill="#F6F6F6"/>
</svg>
