<svg width="48" height="48" viewBox="0 0 48 48" fill="none" xmlns="http://www.w3.org/2000/svg">
<circle cx="24" cy="24" r="24" fill="#FF003C"/>
<path d="M29.5663 28.4764L33.625 32.5341L32.2841 33.875L28.2264 29.8163C26.7166 31.0267 24.8386 31.685 22.9036 31.6822C18.1958 31.6822 14.375 27.8614 14.375 23.1536C14.375 18.4458 18.1958 14.625 22.9036 14.625C27.6114 14.625 31.4322 18.4458 31.4322 23.1536C31.435 25.0886 30.7767 26.9666 29.5663 28.4764ZM27.6654 27.7733C28.8678 26.5363 29.5394 24.8786 29.537 23.1536C29.537 19.4891 26.5681 16.5202 22.9036 16.5202C19.2391 16.5202 16.2702 19.4891 16.2702 23.1536C16.2702 26.8181 19.2391 29.787 22.9036 29.787C24.6286 29.7894 26.2863 29.1178 27.5233 27.9154L27.6654 27.7733Z" fill="white"/>
</svg>
