<svg width="48" height="48" viewBox="0 0 48 48" fill="none" xmlns="http://www.w3.org/2000/svg">
<rect x="0.5" y="0.5" width="47" height="47" rx="4.5" fill="#1988F3" stroke="#1988F3"/>
<g clip-path="url(#clip0_1091_1811)">
<path d="M18.5132 24.2C20.9354 24.2 22.8959 22.2395 22.8959 19.8173C22.8959 17.3951 20.9354 15.4346 18.5132 15.4346C16.091 15.4346 14.1305 17.3951 14.1305 19.8173C14.1305 22.2395 16.091 24.2 18.5132 24.2ZM21.5185 25.4522H21.1937C20.3797 25.8435 19.4758 26.0783 18.5132 26.0783C17.5506 26.0783 16.6505 25.8435 15.8327 25.4522H15.5079C13.0192 25.4522 11 27.4714 11 29.9601V31.0871C11 32.1241 11.8413 32.9654 12.8783 32.9654H24.1481C25.1851 32.9654 26.0264 32.1241 26.0264 31.0871V29.9601C26.0264 27.4714 24.0072 25.4522 21.5185 25.4522ZM29.783 24.2C31.8569 24.2 33.5396 22.5174 33.5396 20.4434C33.5396 18.3695 31.8569 16.6868 29.783 16.6868C27.709 16.6868 26.0264 18.3695 26.0264 20.4434C26.0264 22.5174 27.709 24.2 29.783 24.2ZM31.6613 25.4522H31.5126C30.9686 25.64 30.3934 25.7653 29.783 25.7653C29.1725 25.7653 28.5973 25.64 28.0534 25.4522H27.9047C27.1064 25.4522 26.3707 25.6831 25.7251 26.0548C26.6799 27.084 27.2786 28.4497 27.2786 29.9601V31.4628C27.2786 31.5489 27.259 31.631 27.2551 31.7132H34.1657C35.2026 31.7132 36.044 30.8719 36.044 29.8349C36.044 27.4127 34.0835 25.4522 31.6613 25.4522Z" fill="white"/>
</g>
<defs>
<clipPath id="clip0_1091_1811">
<rect width="25.044" height="20.0352" fill="white" transform="translate(11 14.1824)"/>
</clipPath>
</defs>
</svg>
