<svg width="48" height="48" viewBox="0 0 48 48" fill="none" xmlns="http://www.w3.org/2000/svg">
<g clip-path="url(#clip0_1091_1717)">
<path d="M24 0C25.0152 0 25.8384 0.8232 25.8384 1.8384V22.1592H46.1616C46.6495 22.1592 47.1174 22.353 47.4624 22.698C47.8074 23.043 48.0012 23.5109 48.0012 23.9988C48.0012 24.4867 47.8074 24.9546 47.4624 25.2996C47.1174 25.6446 46.6495 25.8384 46.1616 25.8384H25.8384V46.1616C25.8384 46.6492 25.6447 47.1168 25.2999 47.4615C24.9552 47.8063 24.4876 48 24 48C23.5124 48 23.0448 47.8063 22.7001 47.4615C22.3553 47.1168 22.1616 46.6492 22.1616 46.1616L22.1592 25.8384H1.8384C1.35083 25.8384 0.883222 25.6447 0.538455 25.2999C0.193688 24.9552 0 24.4876 0 24C0 23.5124 0.193688 23.0448 0.538455 22.7001C0.883222 22.3553 1.35083 22.1616 1.8384 22.1616L22.1592 22.1592V1.8384C22.1605 1.3508 22.3549 0.88357 22.6999 0.539009C23.0449 0.194448 23.5124 0.000633245 24 0Z" fill="white"/>
</g>
<defs>
<clipPath id="clip0_1091_1717">
<rect width="48" height="48" fill="white"/>
</clipPath>
</defs>
</svg>
