<svg width="20" height="20" viewBox="0 0 20 20" fill="none" xmlns="http://www.w3.org/2000/svg">
<path d="M10.0003 1.66651C11.2355 1.66525 12.4555 1.93915 13.5716 2.46831C14.6877 2.99747 15.672 3.7686 16.4528 4.72568L11.1787 9.99984L16.4528 15.274C15.672 16.2311 14.6877 17.0022 13.5716 17.5314C12.4555 18.0605 11.2355 18.3344 10.0003 18.3332C5.39783 18.3332 1.66699 14.6023 1.66699 9.99984C1.66699 5.39734 5.39783 1.66651 10.0003 1.66651ZM10.0003 4.16651C9.6688 4.16651 9.35086 4.2982 9.11644 4.53262C8.88202 4.76705 8.75033 5.08499 8.75033 5.41651C8.75033 5.74803 8.88202 6.06597 9.11644 6.30039C9.35086 6.53481 9.6688 6.66651 10.0003 6.66651C10.3318 6.66651 10.6498 6.53481 10.8842 6.30039C11.1186 6.06597 11.2503 5.74803 11.2503 5.41651C11.2503 5.08499 11.1186 4.76705 10.8842 4.53262C10.6498 4.2982 10.3318 4.16651 10.0003 4.16651Z" fill="#FCDA17"/>
</svg>
