<svg width="20" height="20" viewBox="0 0 20 20" fill="none" xmlns="http://www.w3.org/2000/svg">
<path d="M8.00293 15.5487L10.7854 16.5575V6.25204C10.7858 6.18553 10.8021 6.12008 10.833 6.0612C10.864 6.00232 10.9086 5.95173 10.9632 5.91371C11.0177 5.87568 11.0806 5.85133 11.1466 5.8427C11.2125 5.83407 11.2796 5.84142 11.3421 5.86412C11.505 5.92284 11.6458 6.03036 11.7453 6.17204C11.8449 6.31371 11.8983 6.48264 11.8983 6.65579V10.9083C12.2172 11.0187 12.5579 11.0505 12.8917 11.0011C13.2254 10.9517 13.5423 10.8225 13.8154 10.6244C14.0885 10.4263 14.3098 10.1652 14.4605 9.86337C14.6112 9.56149 14.6868 9.22771 14.6808 8.89037C14.6796 8.00207 14.4049 7.13569 13.894 6.409C13.3831 5.6823 12.6609 5.13054 11.8254 4.8287L8.00293 3.44287V15.5487Z" stroke="white" stroke-width="0.5" stroke-linecap="round" stroke-linejoin="round"/>
<path d="M6.88798 11.0767L2.60465 12.61C2.46815 12.6591 2.34271 12.7348 2.23551 12.8325C2.12831 12.9303 2.04146 13.0482 1.97995 13.1796C1.91844 13.311 1.88347 13.4532 1.87705 13.5981C1.87064 13.7431 1.8929 13.8879 1.94256 14.0242C2.10451 14.3523 2.36997 14.6181 2.69798 14.7804C4.09348 15.4287 5.68703 15.5061 7.13881 14.9962C7.18006 14.9837 7.96215 14.7267 8.00298 14.7129V13.0992L5.59256 13.9483C5.21775 14.0828 4.80861 14.0874 4.4309 13.9612C4.31881 13.9208 4.14131 13.6996 4.47965 13.5446L6.88798 12.6912V11.0767ZM10.7855 12.13C10.8913 12.0937 11.7138 11.8092 11.8205 11.7775C13.6439 11.2333 15.5961 11.3081 17.3726 11.99C17.5174 12.0462 17.6498 12.1304 17.762 12.2379C17.8742 12.3454 17.9641 12.474 18.0264 12.6164C18.0888 12.7587 18.1224 12.912 18.1253 13.0673C18.1282 13.2227 18.1004 13.3771 18.0434 13.5217C17.9785 13.6816 17.88 13.8259 17.7547 13.9446C17.6293 14.0633 17.48 14.1538 17.3167 14.21L10.7855 16.5579V14.9433L15.6713 13.1925C15.7339 13.1699 15.788 13.1286 15.8262 13.0742C15.8645 13.0198 15.885 12.9548 15.885 12.8883C15.885 12.8218 15.8645 12.7569 15.8262 12.7025C15.788 12.648 15.7339 12.6067 15.6713 12.5842C15.1316 12.3896 14.5408 12.3907 14.0017 12.5871L10.7855 13.7442V12.13Z" stroke="white" stroke-width="0.5" stroke-linecap="round" stroke-linejoin="round"/>
</svg>
