<svg width="26" height="26" viewBox="0 0 26 26" fill="none" xmlns="http://www.w3.org/2000/svg">
<path d="M10.25 23L9.84995 19.8C9.63329 19.7167 9.42929 19.6167 9.23795 19.5C9.04662 19.3833 8.85895 19.2583 8.67495 19.125L5.69995 20.375L2.94995 15.625L5.52495 13.675C5.50828 13.5583 5.49995 13.446 5.49995 13.338V12.663C5.49995 12.5543 5.50828 12.4417 5.52495 12.325L2.94995 10.375L5.69995 5.625L8.67495 6.875C8.85829 6.74167 9.04995 6.61667 9.24995 6.5C9.44995 6.38333 9.64995 6.28333 9.84995 6.2L10.25 3H15.75L16.15 6.2C16.3666 6.28333 16.571 6.38333 16.763 6.5C16.955 6.61667 17.1423 6.74167 17.325 6.875L20.3 5.625L23.05 10.375L20.475 12.325C20.4916 12.4417 20.5 12.5543 20.5 12.663V13.337C20.5 13.4457 20.4833 13.5583 20.45 13.675L23.025 15.625L20.275 20.375L17.325 19.125C17.1416 19.2583 16.95 19.3833 16.75 19.5C16.55 19.6167 16.35 19.7167 16.15 19.8L15.75 23H10.25ZM12 21H13.975L14.325 18.35C14.8416 18.2167 15.321 18.021 15.763 17.763C16.205 17.505 16.609 17.1923 16.975 16.825L19.45 17.85L20.425 16.15L18.275 14.525C18.3583 14.2917 18.4166 14.046 18.45 13.788C18.4833 13.53 18.5 13.2673 18.5 13C18.5 12.7327 18.4833 12.4703 18.45 12.213C18.4166 11.9557 18.3583 11.7097 18.275 11.475L20.425 9.85L19.45 8.15L16.975 9.2C16.6083 8.81667 16.2043 8.496 15.763 8.238C15.3216 7.98 14.8423 7.784 14.325 7.65L14 5H12.025L11.675 7.65C11.1583 7.78333 10.6793 7.97933 10.238 8.238C9.79662 8.49667 9.39229 8.809 9.02495 9.175L6.54995 8.15L5.57495 9.85L7.72495 11.45C7.64162 11.7 7.58329 11.95 7.54995 12.2C7.51662 12.45 7.49995 12.7167 7.49995 13C7.49995 13.2667 7.51662 13.525 7.54995 13.775C7.58329 14.025 7.64162 14.275 7.72495 14.525L5.57495 16.15L6.54995 17.85L9.02495 16.8C9.39162 17.1833 9.79595 17.5043 10.238 17.763C10.68 18.0217 11.159 18.2173 11.675 18.35L12 21ZM13.05 16.5C14.0166 16.5 14.8416 16.1583 15.525 15.475C16.2083 14.7917 16.55 13.9667 16.55 13C16.55 12.0333 16.2083 11.2083 15.525 10.525C14.8416 9.84167 14.0166 9.5 13.05 9.5C12.0666 9.5 11.2373 9.84167 10.562 10.525C9.88662 11.2083 9.54929 12.0333 9.54995 13C9.55062 13.9667 9.88829 14.7917 10.563 15.475C11.2376 16.1583 12.0666 16.5 13.05 16.5Z" fill="#003778"/>
</svg>
