<svg width="26" height="26" viewBox="0 0 26 26" fill="none" xmlns="http://www.w3.org/2000/svg">
<mask id="mask0_1507_2027" style="mask-type:alpha" maskUnits="userSpaceOnUse" x="0" y="0" width="26" height="26">
<rect width="26" height="26" fill="#D9D9D9"/>
</mask>
<g mask="url(#mask0_1507_2027)">
<path d="M13.0003 12.9997C11.8086 12.9997 10.7885 12.5754 9.93987 11.7268C9.09126 10.8781 8.66695 9.85801 8.66695 8.66634C8.66695 7.47467 9.09126 6.45454 9.93987 5.60592C10.7885 4.75731 11.8086 4.33301 13.0003 4.33301C14.192 4.33301 15.2121 4.75731 16.0607 5.60592C16.9093 6.45454 17.3336 7.47467 17.3336 8.66634C17.3336 9.85801 16.9093 10.8781 16.0607 11.7268C15.2121 12.5754 14.192 12.9997 13.0003 12.9997ZM4.33362 21.6663V18.633C4.33362 18.0191 4.4916 17.4549 4.80758 16.9403C5.12355 16.4257 5.54334 16.033 6.06695 15.7622C7.1864 15.2025 8.3239 14.7827 9.47945 14.5028C10.635 14.2229 11.8086 14.083 13.0003 14.083C14.192 14.083 15.3656 14.2229 16.5211 14.5028C17.6767 14.7827 18.8142 15.2025 19.9336 15.7622C20.4572 16.033 20.877 16.4257 21.193 16.9403C21.509 17.4549 21.667 18.0191 21.667 18.633V21.6663H4.33362ZM6.50028 19.4997H19.5003V18.633C19.5003 18.4344 19.4506 18.2538 19.3513 18.0913C19.252 17.9288 19.1211 17.8025 18.9586 17.7122C17.9836 17.2247 16.9996 16.8591 16.0065 16.6153C15.0135 16.3716 14.0114 16.2497 13.0003 16.2497C11.9892 16.2497 10.9871 16.3716 9.99403 16.6153C9.00098 16.8591 8.01695 17.2247 7.04195 17.7122C6.87945 17.8025 6.74855 17.9288 6.64924 18.0913C6.54994 18.2538 6.50028 18.4344 6.50028 18.633V19.4997ZM13.0003 10.833C13.5961 10.833 14.1062 10.6209 14.5305 10.1965C14.9548 9.77224 15.167 9.26217 15.167 8.66634C15.167 8.07051 14.9548 7.56044 14.5305 7.13613C14.1062 6.71183 13.5961 6.49967 13.0003 6.49967C12.4045 6.49967 11.8944 6.71183 11.4701 7.13613C11.0458 7.56044 10.8336 8.07051 10.8336 8.66634C10.8336 9.26217 11.0458 9.77224 11.4701 10.1965C11.8944 10.6209 12.4045 10.833 13.0003 10.833Z" fill="#003778"/>
</g>
</svg>
