<svg width="56" height="56" viewBox="0 0 56 56" fill="none" xmlns="http://www.w3.org/2000/svg">
<circle cx="28" cy="28" r="28" fill="#FF003C"/>
<mask id="mask0_1181_1056" style="mask-type:alpha" maskUnits="userSpaceOnUse" x="9" y="9" width="37" height="37">
<rect x="9" y="9" width="37" height="37" fill="#D9D9D9"/>
</mask>
<g mask="url(#mask0_1181_1056)">
<path d="M27.5003 27.4997C25.8045 27.4997 24.3528 26.8959 23.1451 25.6883C21.9375 24.4806 21.3337 23.0289 21.3337 21.333C21.3337 19.6372 21.9375 18.1855 23.1451 16.9778C24.3528 15.7702 25.8045 15.1664 27.5003 15.1664C29.1962 15.1664 30.6479 15.7702 31.8555 16.9778C33.0632 18.1855 33.667 19.6372 33.667 21.333C33.667 23.0289 33.0632 24.4806 31.8555 25.6883C30.6479 26.8959 29.1962 27.4997 27.5003 27.4997ZM15.167 39.8331V35.5164C15.167 34.6428 15.3918 33.8398 15.8415 33.1075C16.2911 32.3752 16.8885 31.8164 17.6337 31.431C19.2267 30.6344 20.8455 30.037 22.4899 29.6388C24.1344 29.2405 25.8045 29.0414 27.5003 29.0414C29.1962 29.0414 30.8663 29.2405 32.5107 29.6388C34.1552 30.037 35.7739 30.6344 37.367 31.431C38.1121 31.8164 38.7095 32.3752 39.1592 33.1075C39.6088 33.8398 39.8337 34.6428 39.8337 35.5164V39.8331H15.167ZM18.2503 36.7497H36.7503V35.5164C36.7503 35.2337 36.6797 34.9768 36.5383 34.7456C36.397 34.5143 36.2107 34.3344 35.9795 34.206C34.592 33.5122 33.1916 32.9919 31.7785 32.645C30.3653 32.2982 28.9392 32.1247 27.5003 32.1247C26.0614 32.1247 24.6354 32.2982 23.2222 32.645C21.809 32.9919 20.4087 33.5122 19.0212 34.206C18.7899 34.3344 18.6036 34.5143 18.4623 34.7456C18.321 34.9768 18.2503 35.2337 18.2503 35.5164V36.7497ZM27.5003 24.4164C28.3482 24.4164 29.0741 24.1145 29.6779 23.5107C30.2818 22.9068 30.5837 22.181 30.5837 21.333C30.5837 20.4851 30.2818 19.7593 29.6779 19.1554C29.0741 18.5516 28.3482 18.2497 27.5003 18.2497C26.6524 18.2497 25.9265 18.5516 25.3227 19.1554C24.7189 19.7593 24.417 20.4851 24.417 21.333C24.417 22.181 24.7189 22.9068 25.3227 23.5107C25.9265 24.1145 26.6524 24.4164 27.5003 24.4164Z" fill="#F6F6F6"/>
</g>
</svg>
