<svg width="26" height="22" viewBox="0 0 26 22" fill="none" xmlns="http://www.w3.org/2000/svg">
<path d="M8.6 10.774C10.7278 10.774 12.45 9.03529 12.45 6.88702C12.45 4.73875 10.7278 3 8.6 3C6.47219 3 4.75 4.73875 4.75 6.88702C4.75 9.03529 6.47219 10.774 8.6 10.774ZM11.24 11.8846H10.9547C10.2397 12.2317 9.44563 12.4399 8.6 12.4399C7.75437 12.4399 6.96375 12.2317 6.24531 11.8846H5.96C3.77375 11.8846 2 13.6754 2 15.8827V16.8822C2 17.8019 2.73906 18.5481 3.65 18.5481H13.55C14.4609 18.5481 15.2 17.8019 15.2 16.8822V15.8827C15.2 13.6754 13.4262 11.8846 11.24 11.8846ZM18.5 10.774C20.3219 10.774 21.8 9.2817 21.8 7.44231C21.8 5.60291 20.3219 4.11058 18.5 4.11058C16.6781 4.11058 15.2 5.60291 15.2 7.44231C15.2 9.2817 16.6781 10.774 18.5 10.774ZM20.15 11.8846H20.0194C19.5416 12.0512 19.0363 12.1623 18.5 12.1623C17.9637 12.1623 17.4584 12.0512 16.9806 11.8846H16.85C16.1488 11.8846 15.5025 12.0894 14.9353 12.4191C15.7741 13.3318 16.3 14.5431 16.3 15.8827V17.2154C16.3 17.2917 16.2828 17.3646 16.2794 17.4375H22.35C23.2609 17.4375 24 16.6913 24 15.7716C24 13.6234 22.2778 11.8846 20.15 11.8846Z" fill="#003778"/>
</svg>
