<svg width="38" height="38" viewBox="0 0 38 38" fill="none" xmlns="http://www.w3.org/2000/svg">
<circle cx="19" cy="19" r="19" fill="#FF003C"/>
<g clip-path="url(#clip0_1046_935)">
<path d="M22.61 9.07935C23.1963 8.74106 23.8656 8.57395 24.5421 8.59701C25.2185 8.62007 25.875 8.83237 26.4368 9.20979C26.9987 9.58722 27.4434 10.1146 27.7206 10.7322C27.9977 11.3497 28.0961 12.0325 28.0046 12.7032C27.9131 13.3738 27.6354 14.0054 27.203 14.5261C26.7706 15.0468 26.2008 15.4358 25.5584 15.6489C24.9159 15.862 24.2266 15.8907 23.5687 15.7317C22.9108 15.5728 22.3106 15.2325 21.8364 14.7495L16.1545 18.0302C16.3307 18.6648 16.3307 19.3354 16.1545 19.97L21.8364 23.2506C22.4543 22.6241 23.2791 22.244 24.1568 22.1813C25.0345 22.1187 25.9049 22.3777 26.6055 22.9101C27.3061 23.4426 27.7888 24.2119 27.9634 25.0743C28.1381 25.9367 27.9927 26.8332 27.5545 27.5962C27.1149 28.3605 26.4113 28.9381 25.5759 29.2204C24.7406 29.5026 23.8309 29.4702 23.0177 29.1292C22.2046 28.7881 21.5439 28.1619 21.1598 27.3682C20.7757 26.5745 20.6946 25.6679 20.9317 24.8186L15.2498 21.537C14.746 22.05 14.101 22.4014 13.3969 22.5464C12.6927 22.6915 11.9613 22.6237 11.2958 22.3516C10.6304 22.0795 10.061 21.6154 9.66021 21.0185C9.25943 20.4217 9.04541 19.719 9.04541 19.0001C9.04541 18.2811 9.25943 17.5785 9.66021 16.9816C10.061 16.3847 10.6304 15.9207 11.2958 15.6486C11.9613 15.3765 12.6927 15.3086 13.3969 15.4537C14.101 15.5987 14.746 15.9501 15.2498 16.4631L20.9317 13.1824C20.7173 12.4092 20.7657 11.5867 21.0695 10.844C21.3733 10.1014 21.9152 9.48064 22.61 9.07935ZM25.9866 11.3096C25.8686 11.1021 25.7108 10.9201 25.5222 10.7738C25.3336 10.6276 25.1179 10.5202 24.8876 10.4576C24.6573 10.3951 24.4169 10.3788 24.1803 10.4095C23.9436 10.4403 23.7154 10.5175 23.5087 10.6369C23.3021 10.7562 23.1211 10.9152 22.9761 11.1048C22.8311 11.2944 22.7251 11.5107 22.6641 11.7414C22.6031 11.9721 22.5884 12.2126 22.6207 12.4491C22.653 12.6855 22.7318 12.9132 22.8525 13.1191C23.0941 13.5313 23.489 13.8312 23.951 13.9534C24.413 14.0755 24.9045 14.01 25.3183 13.771C25.7321 13.5321 26.0346 13.1392 26.1598 12.6781C26.285 12.2169 26.2227 11.725 25.9866 11.3096ZM10.9205 19.4769C10.9938 19.7437 11.1273 19.9902 11.3107 20.1974C11.4942 20.4046 11.7226 20.567 11.9786 20.6722C12.2345 20.7774 12.5112 20.8225 12.7873 20.8041C13.0634 20.7858 13.3317 20.7044 13.5714 20.5662C13.8642 20.397 14.1036 20.1492 14.2627 19.8509C14.4217 19.5525 14.494 19.2156 14.4714 18.8782C14.4487 18.5409 14.332 18.2166 14.1344 17.9423C13.9369 17.6679 13.6664 17.4543 13.3537 17.3258C13.041 17.1973 12.6985 17.159 12.3651 17.2152C12.0317 17.2714 11.7207 17.4199 11.4674 17.6438C11.2141 17.8678 11.0286 18.1582 10.9319 18.4822C10.8353 18.8062 10.8313 19.1507 10.9205 19.4769ZM25.3243 24.2196C25.1184 24.0989 24.8907 24.0202 24.6543 23.9878C24.4178 23.9555 24.1773 23.9703 23.9466 24.0313C23.7159 24.0923 23.4995 24.1983 23.31 24.3432C23.1204 24.4882 22.9614 24.6692 22.8421 24.8759C22.7227 25.0826 22.6455 25.3108 22.6147 25.5474C22.5839 25.7841 22.6003 26.0245 22.6628 26.2548C22.7254 26.4851 22.8328 26.7008 22.979 26.8894C23.1252 27.078 23.3073 27.2358 23.5148 27.3537C23.9302 27.5899 24.4221 27.6522 24.8832 27.527C25.3444 27.4018 25.7373 27.0993 25.9762 26.6855C26.2151 26.2716 26.2807 25.7801 26.1586 25.3182C26.0364 24.8562 25.7365 24.4613 25.3243 24.2196Z" fill="white"/>
</g>
<defs>
<clipPath id="clip0_1046_935">
<rect width="21.7143" height="21.7143" fill="white" transform="translate(8.14258 8.14288)"/>
</clipPath>
</defs>
</svg>
