<svg width="33" height="33" viewBox="0 0 33 33" fill="none" xmlns="http://www.w3.org/2000/svg">
<g clip-path="url(#clip0_1681_1365)">
<path d="M16.5 0C12.1249 0 7.92516 1.73946 4.83398 4.8327C1.73965 7.92717 0.000885453 12.1238 0 16.5C0 20.8743 1.74023 25.0741 4.83398 28.1673C7.92516 31.2605 12.1249 33 16.5 33C20.8751 33 25.0748 31.2605 28.166 28.1673C31.2598 25.0741 33 20.8743 33 16.5C33 12.1257 31.2598 7.92593 28.166 4.8327C25.0748 1.73946 20.8751 0 16.5 0Z" fill="#888888"/>
<path d="M7.46891 16.3258C12.2797 14.2303 15.4869 12.8488 17.0905 12.1812C21.6744 10.2752 22.6257 9.94417 23.247 9.93296C23.3837 9.93077 23.6879 9.96454 23.8864 10.125C24.0514 10.2604 24.0978 10.4434 24.121 10.5719C24.1416 10.7003 24.17 10.993 24.1468 11.2214C23.8993 13.8304 22.8242 20.1618 22.2777 23.0841C22.0482 24.3206 21.5919 24.7351 21.151 24.7756C20.192 24.8638 19.4649 24.1424 18.5368 23.5342C17.0853 22.5821 16.2655 21.9897 14.8552 21.0608C13.2259 19.9873 14.2829 19.3971 15.211 18.4329C15.4534 18.1805 19.6763 14.3404 19.7563 13.9921C19.7666 13.9485 19.7769 13.7861 19.6789 13.7005C19.5835 13.6147 19.4417 13.644 19.3386 13.6672C19.1916 13.7002 16.8739 15.2337 12.3777 18.2674C11.7202 18.7196 11.1247 18.94 10.5884 18.9284C10.0006 18.9158 8.86625 18.5953 8.0232 18.3215C6.99195 17.9856 6.16953 17.808 6.24172 17.2374C6.27781 16.9404 6.68774 16.6365 7.46891 16.3258Z" fill="white"/>
</g>
<defs>
<clipPath id="clip0_1681_1365">
<rect width="33" height="33" fill="white"/>
</clipPath>
</defs>
</svg>
