<svg width="32" height="28" viewBox="0 0 32 28" fill="none" xmlns="http://www.w3.org/2000/svg">
<path d="M22.3615 18.8302L27 23.4676L25.4676 25L20.8302 20.3615C19.1047 21.7448 16.9585 22.4971 14.747 22.4939C9.36664 22.4939 5 18.1273 5 12.747C5 7.36664 9.36664 3 14.747 3C20.1273 3 24.4939 7.36664 24.4939 12.747C24.4971 14.9585 23.7448 17.1047 22.3615 18.8302ZM20.189 18.0266C21.5632 16.613 22.3307 14.7184 22.328 12.747C22.328 8.55902 18.9349 5.16599 14.747 5.16599C10.559 5.16599 7.16599 8.55902 7.16599 12.747C7.16599 16.9349 10.559 20.328 14.747 20.328C16.7184 20.3307 18.613 19.5632 20.0266 18.189L20.189 18.0266Z" fill="#BFBFBF"/>
</svg>
